<svg width="361" height="108" viewBox="0 0 361 108" fill="#c6e6ff" xmlns="http://www.w3.org/2000/svg">
    <path d="M0.0483398 105.4H13.0083V62.2001H41.0883C63.5523 62.2001 74.3523 50.8241 74.3523 31.9601C74.3523 24.1841 71.7603 17.4161 67.4403 12.3761C62.1123 6.04007 53.7603 2.44007 42.9603 2.44007H0.0483398V105.4ZM13.0083 13.6721H40.8003C53.9043 13.6721 61.5363 20.1521 61.5363 32.5361C61.5363 44.3441 54.6243 51.6881 40.0803 51.6881H13.0083V13.6721Z" fill="#c6e6ff"/>
    <path d="M238.02 107.416C260.196 107.416 275.892 96.6161 275.892 77.3201C275.892 54.1361 257.604 49.2401 237.588 45.2081C222.18 42.1841 210.66 38.7281 210.66 27.0641C210.66 16.4081 219.876 10.5041 233.844 10.5041C248.964 10.5041 258.468 17.8481 260.34 32.5361H272.58C269.988 13.5281 259.332 0.424072 233.556 0.424072C212.676 0.424072 198.564 10.6481 198.564 27.6401C198.564 47.0801 214.116 52.2641 232.26 56.2961C250.692 60.3281 263.076 63.6401 263.076 77.7521C263.076 90.5681 252.852 97.0481 238.596 97.0481C219.156 97.0481 208.5 87.9761 206.772 70.5521H194.1C195.252 91.2881 209.076 107.416 238.02 107.416Z" fill="#c6e6ff"/>
    <path d="M279.178 13.8161H313.45V105.4H326.41V13.8161H360.682V2.44007H279.178V13.8161Z" fill="#c6e6ff"/>
    <path fill-rule="evenodd" clip-rule="evenodd" d="M181.942 23.8963L178.08 21L177.65 21.5723C166.487 36.4084 150.549 44.8782 133.927 44.8782C117.306 44.8782 101.371 36.4068 90.2047 21.5722L89.7741 21.0001L86 23.8307L86.4309 24.4046C89.4912 28.4803 92.9974 32.2007 96.8841 35.4966L97.0028 69.099C96.8991 74.0361 97.7815 78.9443 99.5984 83.5362C101.416 88.1308 104.133 92.3163 107.59 95.8472C111.047 99.378 115.173 102.183 119.728 104.098C124.283 106.014 129.175 107 134.116 107C139.057 107 143.949 106.014 148.504 104.098C153.059 102.183 157.186 99.378 160.642 95.8472C164.099 92.3163 166.816 88.1308 168.634 83.5362C170.451 78.9438 171.333 74.0351 171.23 69.0976V35.283C174.997 32.0513 178.403 28.4197 181.387 24.4519L181.942 23.8963ZM136.283 83.4297V49.5098C147.168 48.9621 157.66 45.2953 166.511 38.9546V69.1207L166.511 69.1294C166.617 73.4501 165.857 77.7482 164.276 81.7708C162.695 85.7933 160.326 89.459 157.307 92.5522C154.289 95.6453 150.682 98.1033 146.699 99.7816C142.716 101.46 138.438 102.324 134.116 102.324C129.794 102.324 125.516 101.46 121.533 99.7816C117.55 98.1033 113.943 95.6453 110.925 92.5522C107.906 89.459 105.537 85.7933 103.956 81.7708C102.376 77.7482 101.616 73.4501 101.721 69.1294L101.721 69.1194L101.616 39.1619C110.408 45.3867 120.796 48.9834 131.565 49.5231V83.4297H136.283Z" fill="#c6e6ff"/>
</svg>
