<svg width="361" height="108" viewBox="0 0 361 108" fill="#7dc1ff" xmlns="http://www.w3.org/2000/svg">
    <path d="M0.0488281 105.4H13.0088V62.2H41.0888C63.5528 62.2 74.3528 50.824 74.3528 31.96C74.3528 24.184 71.7608 17.416 67.4408 12.376C62.1128 6.04001 53.7608 2.44001 42.9608 2.44001H0.0488281V105.4ZM13.0088 13.672H40.8008C53.9048 13.672 61.5368 20.152 61.5368 32.536C61.5368 44.344 54.6248 51.688 40.0808 51.688H13.0088V13.672Z" fill="#7dc1ff"/>
    <path d="M238.02 107.416C260.196 107.416 275.892 96.616 275.892 77.32C275.892 54.136 257.604 49.24 237.588 45.208C222.18 42.184 210.66 38.728 210.66 27.064C210.66 16.408 219.876 10.504 233.844 10.504C248.964 10.504 258.468 17.848 260.34 32.536H272.58C269.988 13.528 259.332 0.424011 233.556 0.424011C212.676 0.424011 198.564 10.648 198.564 27.64C198.564 47.08 214.116 52.264 232.26 56.296C250.692 60.328 263.076 63.64 263.076 77.752C263.076 90.568 252.852 97.048 238.596 97.048C219.156 97.048 208.5 87.976 206.772 70.552H194.1C195.252 91.288 209.076 107.416 238.02 107.416Z" fill="#7dc1ff"/>
    <path d="M279.178 13.816H313.45V105.4H326.41V13.816H360.682V2.44001H279.178V13.816Z" fill="#7dc1ff"/>
    <path d="M87.6006 99.8321H177.558V4.60181H87.6006V99.8321ZM91.1125 8.11579H174.044V25.5115H91.1125V8.11579ZM91.1125 29.0234H174.044V96.3224H91.1125V29.0234Z" fill="#7dc1ff"/>
    <path d="M163.313 46.9744H101.844V50.431H163.313V46.9744Z" fill="#7dc1ff"/>
    <path d="M163.313 61.0307H101.844V64.4873H163.313V61.0307Z" fill="#7dc1ff"/>
    <path d="M132.579 75.0726H101.844V78.559H132.579V75.0726Z" fill="#7dc1ff"/>
    <path d="M112.386 15.1436H101.844V18.6576H112.386V15.1436Z" fill="#7dc1ff"/>
    <path d="M129.952 15.1436H119.41V18.6576H129.952V15.1436Z" fill="#7dc1ff"/>
    <path d="M147.525 15.1436H136.983V18.6576H147.525V15.1436Z" fill="#7dc1ff"/>
</svg>