<svg viewBox="0 0 388 110" fill="white" xmlns="http://www.w3.org/2000/svg">
    <path
            d="M44.8815 108.981C67.257 108.981 83.0942 98.0843 83.0942 78.6147C83.0942 55.2221 64.6417 50.2821 44.4456 46.2138C28.899 43.1626 17.2754 39.6755 17.2754 27.9066C17.2754 17.1547 26.5743 11.1976 40.6679 11.1976C55.924 11.1976 65.5135 18.6077 67.4023 33.4278H79.7524C77.1371 14.2488 66.3852 1.02691 40.3773 1.02691C19.3095 1.02691 5.07056 11.3429 5.07056 28.4877C5.07056 48.1026 20.7625 53.3333 39.0697 57.4015C57.6675 61.4698 70.1629 64.8116 70.1629 79.0506C70.1629 91.9818 59.8469 98.5201 45.4627 98.5201C25.8478 98.5201 15.0959 89.3665 13.3524 71.7858H0.566406C1.72877 92.7083 15.6771 108.981 44.8815 108.981Z"
            fill="white"/>
    <path
            d="M98.0562 106.947H111.133V57.8374H166.636V106.947H179.712V3.06105H166.636V47.2309H111.133V3.06105H98.0562V106.947Z"
            fill="white"/>
    <path
            d="M246.154 109.127C277.538 109.127 297.008 86.0247 297.008 54.9315C297.008 23.8383 277.538 0.736328 246.154 0.736328C214.77 0.736328 195.301 23.8383 195.301 54.9315C195.301 86.0247 214.77 109.127 246.154 109.127ZM246.154 97.6484C221.745 97.6484 208.668 79.3411 208.668 54.9315C208.668 30.5219 221.745 12.0694 246.154 12.0694C270.564 12.0694 283.64 30.5219 283.64 54.9315C283.64 79.3411 270.564 97.6484 246.154 97.6484Z"
            fill="white"/>
    <path
            d="M312.594 106.947H325.671V63.3586H354.003C376.669 63.3586 387.566 51.8803 387.566 32.8466C387.566 25.0007 384.951 18.1718 380.592 13.0864C375.216 6.69343 366.789 3.06105 355.892 3.06105H312.594V106.947ZM325.671 14.3941H353.713C366.934 14.3941 374.635 20.9324 374.635 33.4278C374.635 45.342 367.661 52.7521 352.986 52.7521H325.671V14.3941Z"
            fill="white"/>
</svg>