<svg width="361" height="108" viewBox="0 0 361 108" fill="white" xmlns="http://www.w3.org/2000/svg">
    <path d="M0.0488281 105.4H13.0088V62.2H41.0888C63.5528 62.2 74.3528 50.824 74.3528 31.96C74.3528 24.184 71.7608 17.416 67.4408 12.376C62.1128 6.03998 53.7608 2.43998 42.9608 2.43998H0.0488281V105.4ZM13.0088 13.672H40.8008C53.9048 13.672 61.5368 20.152 61.5368 32.536C61.5368 44.344 54.6248 51.688 40.0808 51.688H13.0088V13.672Z" fill="white"/>
    <path d="M238.02 107.416C260.196 107.416 275.892 96.616 275.892 77.32C275.892 54.136 257.604 49.24 237.588 45.208C222.18 42.184 210.66 38.728 210.66 27.064C210.66 16.408 219.876 10.504 233.844 10.504C248.964 10.504 258.468 17.848 260.34 32.536H272.58C269.988 13.528 259.332 0.423981 233.556 0.423981C212.676 0.423981 198.564 10.648 198.564 27.64C198.564 47.08 214.116 52.264 232.26 56.296C250.692 60.328 263.076 63.64 263.076 77.752C263.076 90.568 252.852 97.048 238.596 97.048C219.156 97.048 208.5 87.976 206.772 70.552H194.1C195.252 91.288 209.076 107.416 238.02 107.416Z" fill="white"/>
    <path d="M279.178 13.816H313.45V105.4H326.41V13.816H360.682V2.43998H279.178V13.816Z" fill="white"/>
    <path d="M152.299 36.124V20.5103C152.169 15.1855 149.966 10.1225 146.161 6.4024C142.355 2.68233 137.249 0.599976 131.932 0.599976C126.614 0.599976 121.508 2.68233 117.702 6.4024C113.897 10.1225 111.694 15.1855 111.564 20.5103V36.124H91V104.874H172.699V36.124H152.299ZM115.599 53.9181V40.1843H148.256V53.9181H152.299V40.1843H168.646V100.839H95.0451V40.1762H111.554V53.9181H115.599ZM115.599 36.1322V20.5184C115.599 16.1803 117.319 12.0199 120.382 8.95245C123.444 5.88497 127.597 4.16175 131.928 4.16175C136.258 4.16175 140.411 5.88497 143.473 8.95245C146.536 12.0199 148.256 16.1803 148.256 20.5184V36.1322H115.599Z" fill="white"/>
</svg>