<svg width="659" height="108" viewBox="0 0 659 108" fill="none" xmlns="http://www.w3.org/2000/svg">
<path d="M44.4884 107.016C66.6644 107.016 82.3604 96.216 82.3604 76.92C82.3604 53.736 64.0724 48.84 44.0564 44.808C28.6484 41.784 17.1284 38.328 17.1284 26.664C17.1284 16.008 26.3444 10.104 40.3124 10.104C55.4324 10.104 64.9364 17.448 66.8084 32.136H79.0484C76.4564 13.128 65.8004 0.0239954 40.0244 0.0239954C19.1444 0.0239954 5.03239 10.248 5.03239 27.24C5.03239 46.68 20.5844 51.864 38.7284 55.896C57.1604 59.928 69.5444 63.24 69.5444 77.352C69.5444 90.168 59.3204 96.648 45.0644 96.648C25.6244 96.648 14.9684 87.576 13.2404 70.152H0.568391C1.72039 90.888 15.5444 107.016 44.4884 107.016ZM97.189 105H110.149V68.568L126.709 52.008L165.445 105H180.565L135.493 43.224L177.109 2.04H160.837L110.149 53.16V2.04H97.189V105ZM218.949 105H231.909V61.656L269.637 2.04H255.813L225.861 51H225.573L196.053 2.04H181.653L218.949 61.368V105ZM280.705 105H347.665V93.048H293.665V2.04H280.705V105ZM352.231 105H365.479L376.567 73.608H417.607L428.551 105H442.663L404.647 2.04H390.103L352.231 105ZM392.551 28.536C394.567 22.632 397.303 13.992 397.303 13.992H397.591C397.591 13.992 400.183 22.776 402.199 28.536L414.007 63.096H380.311L392.551 28.536ZM464.947 105H477.907L498.067 32.424C499.795 26.376 501.955 16.728 501.955 16.728H502.243C502.243 16.728 504.403 26.376 505.987 32.424L524.851 105H537.235L565.891 2.04H552.787L535.651 69C534.067 75.336 531.619 86.424 531.619 86.424H531.331C531.331 86.424 529.027 75.624 527.155 68.712L509.155 2.04H495.187L476.611 68.712C474.739 75.48 472.291 86.424 472.291 86.424H472.003C472.003 86.424 469.843 75.912 468.115 69L451.843 2.04H438.307L464.947 105ZM577.564 105H589.66V20.472H589.948C589.948 20.472 594.268 28.248 597.58 33.288L644.812 105H658.06V2.04H645.964V86.856H645.676C645.676 86.856 641.644 78.936 638.188 73.608L591.244 2.04H577.564V105Z" fill="white"/>
</svg>
