<svg width="361" height="108" viewBox="0 0 361 108" fill="#c6e6ff" xmlns="http://www.w3.org/2000/svg">
<path d="M0.0488281 105.4H13.0088V62.2H41.0888C63.5528 62.2 74.3528 50.824 74.3528 31.96C74.3528 24.184 71.7608 17.416 67.4408 12.376C62.1128 6.03998 53.7608 2.43998 42.9608 2.43998H0.0488281V105.4ZM13.0088 13.672H40.8008C53.9048 13.672 61.5368 20.152 61.5368 32.536C61.5368 44.344 54.6248 51.688 40.0808 51.688H13.0088V13.672Z" fill="#c6e6ff"/>
<path d="M238.02 107.416C260.196 107.416 275.892 96.616 275.892 77.32C275.892 54.136 257.604 49.24 237.588 45.208C222.18 42.184 210.66 38.728 210.66 27.064C210.66 16.408 219.876 10.504 233.844 10.504C248.964 10.504 258.468 17.848 260.34 32.536H272.58C269.988 13.528 259.332 0.423981 233.556 0.423981C212.676 0.423981 198.564 10.648 198.564 27.64C198.564 47.08 214.116 52.264 232.26 56.296C250.692 60.328 263.076 63.64 263.076 77.752C263.076 90.568 252.852 97.048 238.596 97.048C219.156 97.048 208.5 87.976 206.772 70.552H194.1C195.252 91.288 209.076 107.416 238.02 107.416Z" fill="#c6e6ff"/>
<path d="M279.178 13.816H313.45V105.4H326.41V13.816H360.682V2.43998H279.178V13.816Z" fill="#c6e6ff"/>
<path d="M185.698 27.4718L185.61 25.9492L184.121 25.6109C179.252 24.8373 174.299 24.739 169.402 25.3188C163.378 25.9633 154.836 27.8244 148.348 33.0591C139.359 40.31 138.143 61.8149 138.094 62.7293L138.074 63.2127C137.72 64.5259 137.389 65.9862 137.087 67.5673C136.671 63.6077 135.989 59.6807 135.045 55.8128L135.025 55.3072C134.991 54.4069 134.114 33.1518 126.429 24.064C121.204 18.3126 114.584 14.0071 107.208 11.5643C102.722 9.90891 98.0366 8.85892 93.2738 8.44228L91.9364 8.39999L91.3685 9.60855C88.2587 16.0609 87.2681 23.3312 88.5386 30.3803C89.7429 36.7006 92.692 42.5578 97.0523 47.289C102.265 52.989 110.211 56.5399 120.032 57.5611C122.023 57.7666 124.024 57.8687 126.026 57.8672C128.253 57.8672 130.1 57.7424 131.327 57.6276C133.859 68.0628 134.61 87.3682 134.83 97.9968C134.819 102.539 134.92 105.487 134.924 105.61L134.936 105.912L136.95 105.846H138.977V105.544C138.977 104.841 138.977 101.961 138.896 98.0915C138.92 89.7892 139.337 74.4718 141.841 64.7717C146.622 64.4776 161.593 63.1825 168.951 58.2741C174.601 54.6567 179.206 49.6239 182.309 43.6756C184.848 38.668 186.018 33.0775 185.698 27.4718ZM161.966 43.1258L162.24 42.9989L160.518 39.319L160.244 39.448C153.797 42.2722 148.109 46.5825 143.647 52.0262C144.838 46.292 147.025 39.3492 150.898 36.2212C158.653 29.9653 169.93 29.0328 175.962 29.0328C177.877 29.0261 179.791 29.1263 181.694 29.3329C181.706 39.2284 176.256 48.5337 166.709 54.9125C160.868 58.8098 148.691 60.1835 143.216 60.6166C143.323 60.3648 143.432 60.123 143.543 59.8894C146.81 52.9487 153.011 47.3131 161.966 43.1217V43.1258ZM119.794 32.5072C117.215 30.2211 114.349 28.2807 111.268 26.7347L110.992 26.6079L109.316 30.3078L109.588 30.4327C118.949 35.5067 126.212 43.7288 130.092 53.6435C126.853 53.8833 123.599 53.8369 120.368 53.5046C114.249 52.8621 105.759 50.7855 100.053 44.5437C96.1428 40.3261 93.536 35.0673 92.5472 29.4014C91.5583 23.7355 92.2297 17.9045 94.4803 12.6116C96.718 12.8794 113.673 15.2682 123.331 26.6843C126.771 30.7529 128.672 38.0905 129.693 44.0422C126.98 39.7307 123.644 35.8437 119.794 32.5072Z" fill="#c6e6ff"/>
</svg>
