<svg width="361" height="108" viewBox="0 0 361 108" fill="white" xmlns="http://www.w3.org/2000/svg">
<path d="M0.0488281 105.4H13.0088V62.2H41.0888C63.5528 62.2 74.3528 50.824 74.3528 31.96C74.3528 24.184 71.7608 17.416 67.4408 12.376C62.1128 6.03998 53.7608 2.43998 42.9608 2.43998H0.0488281V105.4ZM13.0088 13.672H40.8008C53.9048 13.672 61.5368 20.152 61.5368 32.536C61.5368 44.344 54.6248 51.688 40.0808 51.688H13.0088V13.672Z" fill="white"/>
<path d="M238.02 107.416C260.196 107.416 275.892 96.616 275.892 77.32C275.892 54.136 257.604 49.24 237.588 45.208C222.18 42.184 210.66 38.728 210.66 27.064C210.66 16.408 219.876 10.504 233.844 10.504C248.964 10.504 258.468 17.848 260.34 32.536H272.58C269.988 13.528 259.332 0.423981 233.556 0.423981C212.676 0.423981 198.564 10.648 198.564 27.64C198.564 47.08 214.116 52.264 232.26 56.296C250.692 60.328 263.076 63.64 263.076 77.752C263.076 90.568 252.852 97.048 238.596 97.048C219.156 97.048 208.5 87.976 206.772 70.552H194.1C195.252 91.288 209.076 107.416 238.02 107.416Z" fill="white"/>
<path d="M279.178 13.816H313.45V105.4H326.41V13.816H360.682V2.43998H279.178V13.816Z" fill="white"/>
<path d="M135.251 25.2918L135.66 25.4965L137.912 22.0167L137.503 21.812C137.11 21.5323 136.776 21.1771 136.522 20.7673C136.268 20.3575 136.097 19.9011 136.021 19.4248C135.945 18.9485 135.964 18.4619 136.078 17.9931C136.192 17.5244 136.398 17.083 136.684 16.6946C138.731 13.4195 140.778 8.50676 135.251 4.41284H135.046L132.59 7.68798L132.795 8.09737C134.841 9.53024 135.456 10.9631 133.204 14.6476C132.603 15.4682 132.177 16.404 131.954 17.3966C131.73 18.3891 131.714 19.417 131.907 20.4161C132.099 21.4151 132.495 22.3638 133.07 23.2027C133.646 24.0417 134.388 24.7529 135.251 25.2918Z" fill="white"/>
<path d="M120.513 25.2918L120.923 25.4965L123.379 22.0167L122.97 21.812C122.577 21.5323 122.243 21.1771 121.989 20.7673C121.735 20.3575 121.564 19.9011 121.488 19.4248C121.412 18.9485 121.431 18.4619 121.545 17.9931C121.659 17.5244 121.865 17.083 122.151 16.6946C124.198 13.4195 126.245 8.50676 120.718 4.41284H120.104L117.648 7.68798L118.057 7.89268C120.104 9.32555 120.718 10.7584 118.466 14.443C117.86 15.2798 117.43 16.2316 117.204 17.2402C116.978 18.2487 116.961 19.2928 117.152 20.3085C117.344 21.3241 117.741 22.29 118.319 23.1468C118.897 24.0037 119.643 24.7336 120.513 25.2918Z" fill="white"/>
<path d="M149.989 25.2918L150.398 25.4965L152.65 22.0167L152.241 21.812C151.848 21.5323 151.514 21.1771 151.26 20.7673C151.006 20.3575 150.835 19.9011 150.759 19.4248C150.683 18.9485 150.702 18.4619 150.816 17.9931C150.93 17.5244 151.136 17.083 151.422 16.6946C153.469 13.4195 155.516 8.50676 149.989 4.41284H149.579L147.123 7.68798L147.533 7.89268C149.579 9.32555 150.194 10.7584 147.942 14.443C147.335 15.2798 146.906 16.2316 146.68 17.2402C146.454 18.2487 146.436 19.2928 146.628 20.3085C146.819 21.3241 147.216 22.29 147.794 23.1468C148.372 24.0037 149.119 24.7336 149.989 25.2918Z" fill="white"/>
<path d="M172.915 101.234H87.7617V105.328H172.915V101.234Z" fill="white"/>
<path d="M105.775 25.2918L106.184 25.4965L108.64 22.0167H108.026C107.28 21.417 106.783 20.5613 106.631 19.6157C106.48 18.6701 106.685 17.702 107.208 16.8993C109.255 13.6242 111.301 8.71146 105.775 4.61754L105.57 4.41284L103.114 7.68798L103.523 7.89268C105.57 9.32555 106.184 10.7584 103.932 14.443C103.288 15.2563 102.822 16.1961 102.564 17.2013C102.306 18.2065 102.263 19.2547 102.436 20.2778C102.61 21.301 102.997 22.2761 103.572 23.1399C104.147 24.0037 104.898 24.7369 105.775 25.2918Z" fill="white"/>
<path d="M178.852 45.3521C176.022 42.4993 172.221 40.8182 168.207 40.644V29.9998H90.4229L90.6275 55.7916C90.5735 60.9259 91.5313 66.0206 93.4464 70.7848C95.3614 75.549 98.1961 79.8893 101.789 83.5578C105.381 87.2264 109.661 90.1514 114.384 92.1657C119.107 94.1801 124.181 95.2444 129.315 95.2979C136.835 95.2201 144.174 92.9781 150.454 88.8399C156.734 84.7017 161.689 78.8424 164.728 71.9626H167.184C169.284 72.0038 171.372 71.6273 173.326 70.8549C175.28 70.0825 177.061 68.9296 178.565 67.4632C180.07 65.9968 181.268 64.246 182.09 62.3127C182.912 60.3793 183.342 58.3019 183.355 56.2009C183.275 52.1462 181.667 48.2712 178.852 45.3521ZM164.113 34.0938V55.7916C164.19 65.0655 160.596 73.9935 154.115 80.6277C147.635 87.2619 138.793 91.0638 129.52 91.204C120.247 91.0638 111.405 87.2619 104.924 80.6277C98.4435 73.9935 94.8494 65.0655 94.9262 55.7916L94.7215 34.0938H164.113ZM167.184 67.8686H166.365C167.591 63.9603 168.212 59.8876 168.207 55.7916V44.9427C171.15 45.1245 173.917 46.4026 175.963 48.5246C178.01 50.6467 179.186 53.4586 179.261 56.4056C179.228 57.9535 178.888 59.4795 178.262 60.8955C177.636 62.3114 176.735 63.5892 175.612 64.6551C174.489 65.7209 173.166 66.5537 171.72 67.1053C170.273 67.6569 168.731 67.9163 167.184 67.8686Z" fill="white"/>
</svg>
