<svg width="426" height="109" viewBox="0 0 426 109" fill="none" xmlns="http://www.w3.org/2000/svg">
<path d="M27.0564 106H40.0164L60.1764 33.424C61.9044 27.376 64.0644 17.728 64.0644 17.728H64.3524C64.3524 17.728 66.5124 27.376 68.0964 33.424L86.9604 106H99.3444L128 3.04H114.896L97.7604 70C96.1764 76.336 93.7284 87.424 93.7284 87.424H93.4404C93.4404 87.424 91.1364 76.624 89.2644 69.712L71.2644 3.04H57.2964L38.7204 69.712C36.8484 76.48 34.4004 87.424 34.4004 87.424H34.1124C34.1124 87.424 31.9524 76.912 30.2244 70L13.9524 3.04H0.416391L27.0564 106ZM181.826 108.16C212.93 108.16 232.226 85.264 232.226 54.448C232.226 23.632 212.93 0.735999 181.826 0.735999C150.722 0.735999 131.426 23.632 131.426 54.448C131.426 85.264 150.722 108.16 181.826 108.16ZM181.826 96.784C157.634 96.784 144.674 78.64 144.674 54.448C144.674 30.256 157.634 11.968 181.826 11.968C206.018 11.968 218.978 30.256 218.978 54.448C218.978 78.64 206.018 96.784 181.826 96.784ZM247.673 106H260.633V62.512H289.289C303.113 62.512 309.161 67.84 310.169 82.96C311.321 100.24 311.753 104.128 313.913 106H327.881V105.424C326.009 104.128 324.281 99.952 323.129 83.392C322.121 68.128 318.809 60.928 308.297 57.184V56.752C320.681 52.72 326.153 43.792 326.153 31.264C326.153 14.416 313.913 3.04 295.769 3.04H247.673V106ZM260.633 14.272H291.881C307.001 14.272 312.761 20.608 312.761 33.136C312.761 44.8 305.561 52 291.161 52H260.633V14.272ZM341.892 106H354.852V69.568L371.412 53.008L410.148 106H425.268L380.196 44.224L421.812 3.04H405.54L354.852 54.16V3.04H341.892V106Z" fill="white"/>
</svg>
